<?xml version="1.0" standalone="yes"?>
<svg xmlns="http://www.w3.org/2000/svg" width="272" height="244">
<path style="fill:#fafbf5; stroke:none;" d="M0 0L0 244L272 244L272 0L0 0z"/>
<path style="fill:#a2a737; stroke:none;" d="M183 77C198.12 81.9281 220.289 86.6742 232.907 96.5093C239.963 102.009 244.797 112.735 250 120C254.056 113.67 244.694 97.8287 242.495 91C239.673 82.2354 236.289 66.029 229.581 59.5687C223.915 54.1126 210.47 52.5259 203 50.5255C183.861 45.3997 165.036 38.9197 146 33.4421C136.349 30.6651 113.136 18.8503 104 24.6034C85.8097 36.0577 71.0352 57.7229 55.7454 72.8449C47.6214 80.8797 30.0492 93.1911 26.6042 104.004C24.699 109.983 29.8461 120.054 31.3349 126C36.3484 146.023 41.1792 166.195 46.9645 186C48.8541 192.469 49.5398 205.496 54.7022 210.143C58.185 213.278 65.5786 213.13 70 213.718C82.0371 215.321 93.9271 217.862 106 219.174C123.027 221.024 140.048 224.973 157 227.428C164.135 228.461 172.847 231.749 180 229.436C193.287 225.14 208.188 209.515 219 200.739C231.058 190.951 243.577 181.695 256 172.373C259.941 169.416 267.464 165.543 267.752 159.96C267.994 155.266 264.826 150.334 263.365 146C261.367 140.073 259.359 129.85 254.581 125.564C251.199 122.53 245.21 122.604 241 121.444C228.129 117.899 206.05 117.104 195.34 109.143C188.572 104.111 184.387 85.0623 183 77z"/>
<path style="fill:#185aa5; stroke:none;" d="M109 218L109 217L70 210.861L58.3441 208.142L55 198L57 204L72.169 192.555L108.454 160.478L121 147C129.144 145.816 133.094 136.313 141 134.285C150.815 131.769 170.134 139.446 180 142L176 147C191.592 137.313 207.868 149.253 225 150C224.067 155.737 218.397 158.685 214 162C203.413 169.982 190.957 185.482 178.285 189.61C173.686 191.109 166.886 188.101 162 188L162 189C166.949 189.96 174.066 192.862 179 191.219C197.755 184.973 209.195 160.655 228 153.892C231.407 152.667 235.607 154.736 239 155.388C247.686 157.058 256.432 158.783 265 161C246.621 178.54 224.05 192.39 204.09 208.115C196.802 213.856 186.305 225.737 177 227.306C162.447 229.759 144.889 221.01 130 221L130 222C144.484 223.145 163.839 231.456 178 228.718C185.773 227.215 192.903 218.766 199 214.13C214.667 202.218 230.211 190.113 246 178.37C251.15 174.54 264.75 167.568 266.201 160.907C267.707 154 258.846 136.13 255.327 130.059C252.284 124.809 243.459 124.311 238 123C224.752 119.819 207.016 118.152 195.108 111.442C186.733 106.723 182.87 84.8217 180 76L200 79.9645L240 90C238.653 82.4176 234.059 66.0413 228.362 60.7022C225.163 57.7049 219.976 57.4329 216 56.064C203.841 51.878 191.268 48.7728 179 44.8364C161.495 39.2197 143.675 34.1585 126 29.0918C120.955 27.6456 112.15 23.0365 107 24.6466C95.46 28.2543 82.536 47.7715 74.1157 56.3349C63.1544 67.4825 52.0323 78.4572 41.1119 89.6659C37.2437 93.6362 29.8336 98.5943 28.1188 104.04C26.1919 110.16 31.6157 121.912 33.2932 128C38.5042 146.913 43.5687 165.969 48.3349 185C49.9012 191.254 50.8202 205.039 56.3032 209.062C60.6932 212.282 69.7131 212.446 75 213.05C86.3129 214.343 97.5927 217.765 109 218z"/>
<path style="fill:#123e73; stroke:none;" d="M106 27L94 41L103 35L106 27M101 38L102 39L101 38M109 40L110 41L109 40M91.6667 42.3333L92.3333 42.6667L91.6667 42.3333M80 54L83 51L84 51L84 54L87 48L93 45C87.7737 43.2959 82.52 49.9957 80 54M93 47L94 48L93 47M112 53L112 55L114 53L112 53M77 55L77 57L79 57L79 55L77 55M80 55L81 56L80 55M83.6667 56.3333L84.3333 56.6667L83.6667 56.3333M112 57L106 67L107 67L114 57L112 57M69 63L52 84C56.9183 81.1391 60.7538 77.6766 62 72L63 72L65 74L70 70L70 69L67 69L67 68L77 58L69 63z"/>
<path style="fill:#a2a737; stroke:none;" d="M120 59C114.29 59.8811 110.947 64.0548 107 68C98.3533 76.6429 78.5996 89.3783 74.6181 101C72.7876 106.343 76.7198 113.911 78.2299 119C79.3259 122.693 79.8071 133.998 83.5139 135.824C88.5005 138.28 99.7404 124.119 103 121.17C110.086 114.759 127.856 103.524 130.212 94C132.522 84.6628 122.202 68.297 120 59z"/>
<path style="fill:#123e73; stroke:none;" d="M76 61L76 62L79 62L76 61z"/>
<path style="fill:#fafbf5; stroke:none;" d="M91 96C102.543 95.9682 116.332 90.3064 127 95C129.765 84.9175 121.112 71.1009 119 61C110.544 64.1926 107.031 76.0675 101.696 82.831C98.1225 87.3618 93.6926 90.8084 91 96z"/>
<path style="fill:#123e73; stroke:none;" d="M78 63L79 64L78 63z"/>
<path style="fill:#f1ea2d; stroke:none;" d="M114 63L115 64L114 63M113 65L114 66L113 65z"/>
<path style="fill:#123e73; stroke:none;" d="M71 66L72 67L71 66z"/>
<path style="fill:#f1ea2d; stroke:none;" d="M112 66L113 67L112 66z"/>
<path style="fill:#123e73; stroke:none;" d="M103.333 67.6667L103.667 68.3333L103.333 67.6667z"/>
<path style="fill:#f1ea2d; stroke:none;" d="M111 67L112 68L111 67z"/>
<path style="fill:#123e73; stroke:none;" d="M100 68L99 73L88 80L88 83C93.4586 80.8044 100.998 73.9315 102 68L100 68z"/>
<path style="fill:#f1ea2d; stroke:none;" d="M110 68L111 69L110 68M109 69C101.449 77.1983 88.3849 88.3909 84.5995 99C81.1614 108.636 84 123.78 84 134C89.7834 132.034 93.5077 127.353 97.9105 123.3C107.218 114.733 122.186 105.287 128 94L91 96C95.9177 89.54 110.578 78.0143 109 69z"/>
<path style="fill:#123e73; stroke:none;" d="M67 72L67 74L69 72L67 72z"/>
<path style="fill:#f1ea2d; stroke:none;" d="M122 74L123 75L122 74M123 77L124 78L123 77z"/>
<path style="fill:#fafbf5; stroke:none;" d="M183 77C183.926 86.2348 188.709 104.076 196 110C202.607 101.959 215.642 101.53 225 98L225 96L183 77z"/>
<path style="fill:#f1ea2d; stroke:none;" d="M186.667 78.3333L187.333 78.6667L186.667 78.3333M190 79L191 80L190 79M191 80L191 81L225 96L225 98C216.449 100.409 200.584 101.806 196 110C213.762 116.062 235.265 122.509 254 124L253 118L250 120C246.376 112.714 240.155 101.679 233.816 96.5093C223.707 88.2664 203.609 82.9171 191 80z"/>
<path style="fill:#123e73; stroke:none;" d="M50 83L36 97L36 98L46 92L45 90L49 89L48 87L50 83M82 89L85 86L82 89M73 97L81 90C76.6743 90.7269 74.9174 93.1962 73 97z"/>
<path style="fill:#f1ea2d; stroke:none;" d="M243 94L244 95L243 94M244.333 96.6667L244.667 97.3333L244.333 96.6667z"/>
<path style="fill:#123e73; stroke:none;" d="M71 97L71 100L72 100L71 97z"/>
<path style="fill:#f1ea2d; stroke:none;" d="M245.333 98.6667L245.667 99.3333L245.333 98.6667z"/>
<path style="fill:#123e73; stroke:none;" d="M34 99C26.4272 109.517 34.0545 122.959 37.7083 134.17C39.0631 138.326 38.1786 142.255 42 145L44 164L45 150L32 104L37 100L34 99M128.667 99.3333L129.333 99.6667L128.667 99.3333M125 106L128 106L130 101C126.526 101.577 125.577 102.526 125 106z"/>
<path style="fill:#f1ea2d; stroke:none;" d="M246 102L247 103L246 102z"/>
<path style="fill:#185aa5; stroke:none;" d="M121 104L95 129L105 120L108 121L107 118C111.404 116.598 121.183 108.915 121 104z"/>
<path style="fill:#123e73; stroke:none;" d="M122 104L107 118L108 121L116 116L119 109C121.85 108.063 122.983 106.988 122 104z"/>
<path style="fill:#f1ea2d; stroke:none;" d="M247 105L248 106L247 105z"/>
<path style="fill:#123e73; stroke:none;" d="M71 106L71 112L72 112L71 106z"/>
<path style="fill:#f1ea2d; stroke:none;" d="M248 107L249 108L248 107M194 109L195 110L194 109M249.333 110.667L249.667 111.333L249.333 110.667M250 112L251 113L250 112z"/>
<path style="fill:#123e73; stroke:none;" d="M73 114L72 119L75 119L73 114M118 114L119 115L118 114z"/>
<path style="fill:#f1ea2d; stroke:none;" d="M251 114L251 117L252 117L251 114z"/>
<path style="fill:#123e73; stroke:none;" d="M118 117L119 118L118 117M36 119L37 120L36 119M73 120L73 124L74 124L73 120M104 123L108 123C106.42 120.854 105.538 120.83 104 123M110 120L111 121L110 120M76 122L76 134L78 136L79 136L80 136L76 122M102 123L95 132L99 128L100 128L102 130L101 127L104 123L102 123M111 127L112 128L111 127M79 131L80 132L79 131M92 132L91 135L95 136L95 132L92 132M121 147L107.71 160.478L72.169 191.86L57 204L55 198C55.0118 201.449 54.6251 205.682 57.5725 208.142C61.8115 211.68 72.6311 211.621 78 212.169C90.7562 213.47 103.256 216.833 116 218.17C134.89 220.151 158.2 229.917 177 227.629C185.566 226.586 194.847 216.065 201.439 210.921C215.814 199.705 230.513 188.932 244.91 177.745C251.569 172.572 259.988 167.79 265 161C256.661 158.176 247.618 156.958 239 155.193C235.649 154.507 231.403 152.141 228 153.198C215.52 157.077 201.407 173.042 191.424 181.29C187.479 184.55 182.233 190.534 177 191.277C167.538 192.621 154.575 186.966 145 185.718C142.712 185.42 135.233 185.6 135.77 181.867C136.389 177.568 143.954 173.406 147.05 170.769C157.703 161.694 171.681 153.302 180 142L154 136.105L140 134.027L121 147M132 134L133 135L132 134M89 135L87 139L91 135L89 135M83.6667 141.333L84.3333 141.667L83.6667 141.333z"/>
<path style="fill:#a2a737; stroke:none;" d="M136 180C138.224 186.707 151.021 185.361 157 186.745C162.766 188.079 172.182 191.133 178 189.997C188.363 187.973 200.963 173.353 209 166.751C214.522 162.214 224.385 157.736 225 150L184 141.738L168 153.282L136 180z"/>
<path style="fill:#123e73; stroke:none;" d="M86 143L87 144L86 143z"/>
<path style="fill:#f1ea2d; stroke:none;" d="M138 182C149.22 183.484 166.144 184.887 176.961 181.235C191.957 176.173 206.667 164.362 220 156L220 155L205 160L179 177C178.924 169.009 180.951 160.827 185 154L184 144C169.201 150.264 147.75 169.26 138 182z"/>
<path style="fill:#fafbf5; stroke:none;" d="M183 145L185 154C180.58 159.537 177.953 169.955 179 177L205 160L222 155C220.446 150.302 216.329 150.68 212 149.78C203.225 147.955 191.836 142.571 183 145z"/>
<path style="fill:#185aa5; stroke:none;" d="M174 147L175 148L174 147z"/>
<path style="fill:#f1ea2d; stroke:none;" d="M201 147L202 148L201 147z"/>
<path style="fill:#185aa5; stroke:none;" d="M173 148L174 149L173 148M172 149L173 150L172 149z"/>
<path style="fill:#f1ea2d; stroke:none;" d="M209 149L210 150L209 149z"/>
<path style="fill:#185aa5; stroke:none;" d="M171 150L172 151L171 150M170 151L171 152L170 151M168 152L169 153L168 152M166 154L167 155L166 154M165 155L166 156L165 155M164 156L165 157L164 156M163 157L164 158L163 157M161.667 158.333L162.333 158.667L161.667 158.333M160 159L161 160L160 159M159 160L160 161L159 160M158 161L159 162L158 161M157 162L158 163L157 162M155.667 163.333L156.333 163.667L155.667 163.333M154 164L155 165L154 164z"/>
<path style="fill:#123e73; stroke:none;" d="M47 165L47 174L49 174L47 165z"/>
<path style="fill:#185aa5; stroke:none;" d="M153 165L154 166L153 165M151 166L151 168L153 166L151 166M149.667 168.333L150.333 168.667L149.667 168.333M148 169L149 170L148 169M147 170L148 171L147 170M146 171L147 172L146 171M144 172L144 174L146 172L144 172M142.667 174.333L143.333 174.667L142.667 174.333z"/>
<path style="fill:#123e73; stroke:none;" d="M51 175C48.1689 179.608 50.4555 195.378 56 197L54 185L51 186L51 175z"/>
<path style="fill:#185aa5; stroke:none;" d="M141 175L142 176L141 175M140 176L141 177L140 176M136 180L140 177L136 180M135 180C134.458 185.346 138.663 184.985 143 185L143 184L135 180M143 185L143 186L150 186L143 185M151 186L151 187L160 189L151 186z"/>
<path style="fill:#a2a737; stroke:none;" d="M270.333 190.667L270.667 191.333L270.333 190.667z"/>
<path style="fill:#123e73; stroke:none;" d="M270 192L271 193L270 192M64 196L65 197L64 196z"/>
<path style="fill:#185aa5; stroke:none;" d="M110 218L110 219L129 221L110 218z"/>
</svg>
